<svg xmlns="http://www.w3.org/2000/svg" viewBox="0 0 141.73 73.19"><defs><style>.cls-1{fill:#fff;}.cls-2{fill:#96b4dc;}</style></defs><title>Asset 1</title><g id="Layer_2" data-name="Layer 2"><g id="Layer_1-2" data-name="Layer 1"><path class="cls-1" d="M5.05,18.13C1.82,15.86.1,13.23.1,9.55.1,3.23,4.85,0,9.9,0c6,0,9.4,4,9.4,9.85v1.21H12.88V9.65c0-1.92-1.16-3.59-3.13-3.59A2.66,2.66,0,0,0,6.92,8.84c0,2.27,1,3,3.18,4.7l4.65,3.53c3,2.33,4.95,4.7,4.95,8.29,0,6.16-4.6,9.8-10,9.8S0,31.37,0,25.86V24H6.41v1.37A3.39,3.39,0,0,0,9.8,29a3.14,3.14,0,0,0,2.93-3.33c0-1.67-.81-2.63-2.68-4Z"/><path class="cls-1" d="M31,34.75c-5.2,0-7.22-2.22-7.22-7.37V15.2H20.67V9.5H23.8v-6h6.51v6h3.84v5.7H30.31V26.42c0,1.76.46,2.57,2.28,2.57H34.2v5.76Z"/><path class="cls-1" d="M48.71,18.08a3.08,3.08,0,1,0-6.16,0v8.08a3.08,3.08,0,1,0,6.16,0Zm6.52,7.83c0,5.76-3.89,9.25-9.6,9.25S36,31.67,36,25.91V18.39c0-5.76,3.94-9.3,9.6-9.3s9.6,3.54,9.6,9.3Z"/><path class="cls-1" d="M70.65,18.84c0-2.42-1-3.94-3-3.94s-3.18,1.52-3.18,3.94v6.77c0,2.32.91,3.74,3.08,3.74,1.92,0,3.13-1.32,3.13-3.39ZM58,36V9.5h6.16v1.76a6.69,6.69,0,0,1,5.3-2.17c5.1,0,7.73,3.54,7.73,9.14v7.83c0,5.31-3.08,9.1-8.08,9.1a5.79,5.79,0,0,1-4.65-2V36Z"/><path class="cls-2" d="M49.49,46.37a2.88,2.88,0,0,0-3-2.68c-1.67,0-2.63.86-2.63,2,0,4.15,12.42,1.37,12.42,10.46,0,5.46-4.59,8.13-9.74,8.13-4.85,0-9.3-2.07-9.5-8.33h6.47a3,3,0,0,0,3.33,2.93c1.56,0,2.88-.91,2.88-2.22,0-4.2-12.38-1.47-12.38-10.46,0-5,3.69-8,9.6-8,4.19,0,8.54,1.67,8.79,8.13Z"/><rect class="cls-2" x="79.9" y="38.64" width="6.57" height="25.26"/><rect class="cls-2" x="89.57" y="29.55" width="6.52" height="34.35"/><rect class="cls-2" x="99.12" y="29.55" width="6.52" height="34.35"/><path class="cls-2" d="M120.78,47.48c0-2.12-1.21-3.43-3.08-3.43s-3.08,1.21-3.08,3.43v1.11h6.16Zm-6.16,5.46v2.22c0,2.07,1.06,3.08,3.23,3.08,2.38,0,3.14-1.21,3.19-2.63h6.21c-.15,5.76-3.89,8.69-9.5,8.69s-9.64-3.53-9.64-9V47.58c0-5.86,4.19-9.34,9.74-9.34s9.4,3.53,9.4,9.29v5.41Z"/><path class="cls-2" d="M138.55,63.9c-5.2,0-7.22-2.22-7.22-7.38V44.35H128.2V38.64h3.13v-6h6.51v6h3.84v5.71h-3.84V55.56c0,1.77.46,2.58,2.28,2.58h1.61V63.9Z"/><path class="cls-1" d="M79.42,31.4a3.77,3.77,0,1,1,3.74,3.79,3.8,3.8,0,0,1-3.74-3.79"/><path class="cls-2" d="M70.65,48c0-2.43-1-3.94-3-3.94S64.44,45.56,64.44,48v6.77c0,2.32.91,3.73,3.08,3.73,1.92,0,3.13-1.31,3.13-3.38ZM58,73.19V38.64h6.45v1.77a6,6,0,0,1,5-2.17c5.1,0,7.73,3.53,7.73,9.14v7.83c0,5.3-3.08,9.09-8.08,9.09a5.79,5.79,0,0,1-4.65-2V73.19Z"/></g></g></svg>